<svg id="Layer_1" data-name="Layer 1" viewBox="0 0 749.64 166.46"><defs><style>.cls-1{fill:#010101}.cls-2{fill:#be1622}.cls-3{fill:#fff}</style></defs><g id="Free_delivery" data-name="Free delivery"><path class="cls-1" d="M192 319.89a33.45 33.45 0 010 11.89l132-.33a33.51 33.51 0 010-11.9zM335.33 325.47a23.79 23.79 0 1023.73-23.85 23.79 23.79 0 00-23.73 23.85zm11.89 0a11.9 11.9 0 1111.93 11.86 11.91 11.91 0 01-11.93-11.89zM394.26 319.37a33.51 33.51 0 010 11.9h12.43a5.94 5.94 0 005.93-6v-5.95z" transform="translate(-8.49 -183.26)"/><path class="cls-1" d="M341.28 294.51a35.61 35.61 0 0148.65 13h10.78l-.11-41.64-65.42.17a6 6 0 01-6-5.93l-.15-59.48h-11.89l.27 107.06h10.78a35.61 35.61 0 0113.09-13.18zM121.75 332a33.45 33.45 0 010-11.89l-30.27.07v5.95a6 6 0 006 5.94zM133.1 326a23.79 23.79 0 1023.73-23.86A23.79 23.79 0 00133.1 326zm11.9 0a11.9 11.9 0 1111.92 11.86A11.89 11.89 0 01145 326zM126 308.16a35.8 35.8 0 0111.14-11.92l-57.64.14v11.9z" transform="translate(-8.49 -183.26)"/><path class="cls-1" d="M341 200.55l.13 53.53 56.19-.15-24.47-53.46zM79.46 284.49l226-.45-.33-100.78-226 .45zm160.37-69c0-2.53 2.64-4.59 5.93-4.6h23.79c3.29 0 6 2 6 4.57l.13 36.64c0 2.53-2.65 4.59-5.94 4.6s-5.95-2-6-4.57l-.05-13.75H251.8c-3.29 0-6-2-6-4.57s2.64-4.59 5.93-4.59h11.89v-9.16h-17.84c-3.27-.06-5.94-2.06-5.95-4.6zm-29 22.28c-7.48-1.76-12.59-7.08-12.6-13.1 0-7.57 8-13.71 17.79-13.72h11.9c3.28 0 6 2 6 4.57l.12 36.65c0 2.53-2.65 4.58-5.93 4.59s-6-2-6-4.57V241.5l-13 13.46a7.17 7.17 0 01-8.32.93c-2.63-1.52-3.17-4.39-1.21-6.41zm-36.38-8.41v-9.16H156.6c-3.28 0-5.95-2-6-4.57s2.65-4.58 5.93-4.59h23.79c3.29 0 6 2 6 4.57l.12 36.65c0 2.53-2.65 4.59-5.94 4.59l-23.79.05c-3.28 0-5.95-2-6-4.57s2.65-4.59 5.93-4.59h17.85v-9.16h-11.9c-3.28 0-6-2-6-4.57s2.64-4.58 5.93-4.59zm-41.64.08v-9.16h-17.84c-3.29 0-6-2-6-4.57s2.65-4.58 5.94-4.59l23.79-.05c3.28 0 6 2 6 4.57l.12 36.65c0 2.53-2.65 4.59-5.93 4.59l-23.79.05c-3.29 0-6-2-6-4.57s2.65-4.58 5.94-4.59h17.84v-9.16h-11.9c-3.28 0-6-2-6-4.57s2.65-4.59 5.93-4.6zM176.5 296.14A35.79 35.79 0 01187.7 308l117.84-.3v-11.9l-129 .34z" transform="translate(-8.49 -183.26)"/><path class="cls-1" d="M88.58 14.47h194.61v63.87H88.58z"/><path class="cls-2" d="M18.63 282.48a42.92 42.92 0 005.24-12.84l55.61-.14v12.82l-60.89.16zM32.53 256.94a50.29 50.29 0 004-12.83l42.58-.11v12.82l-46.61.12z" transform="translate(-8.49 -183.26)"/><path class="cls-3" d="M31.92 67.39l4.36-6.81-11.25-7.22L0 92.39l11.26 7.22.67-1.05M9.77 100.99L35.9 60.25"/></g><text transform="translate(445.35 71.99)" font-size="49" fill="#1d1d1b" font-family="Bitter-Bold,Bitter" font-weight="700">Kostenloser <tspan x="0" y="58.8">Versand</tspan></text></svg>