<svg id="Layer_1" data-name="Layer 1" xmlns="http://www.w3.org/2000/svg" viewBox="0 0 749.64 166.46"><defs><style>.cls-1{fill:#010101;}.cls-2{fill:#be1622;}.cls-3{fill:#fff;}.cls-4{font-size:49px;fill:#1d1d1b;font-family:Bitter-Bold, Bitter;font-weight:700;}</style></defs><title>Untitled-4</title><g id="Free_delivery" data-name="Free delivery"><path class="cls-1" d="M192,319.89a33.45,33.45,0,0,1,0,11.89L324,331.45a33.51,33.51,0,0,1,0-11.9Z" transform="translate(-8.49 -183.26)"/><path class="cls-1" d="M335.33,325.47a23.79,23.79,0,1,0,23.73-23.85A23.79,23.79,0,0,0,335.33,325.47Zm11.89,0a11.9,11.9,0,1,1,11.93,11.86A11.91,11.91,0,0,1,347.22,325.44Z" transform="translate(-8.49 -183.26)"/><path class="cls-1" d="M394.26,319.37a33.51,33.51,0,0,1,0,11.9l12.43,0a5.94,5.94,0,0,0,5.93-6v-5.95Z" transform="translate(-8.49 -183.26)"/><path class="cls-1" d="M341.28,294.51a35.61,35.61,0,0,1,48.65,13l10.78,0-.11-41.64-65.42.17a6,6,0,0,1-6-5.93l-.15-59.48-11.89,0,.27,107.06,10.78,0A35.61,35.61,0,0,1,341.28,294.51Z" transform="translate(-8.49 -183.26)"/><path class="cls-1" d="M121.75,332a33.45,33.45,0,0,1,0-11.89l-30.27.07v5.95a6,6,0,0,0,6,5.94Z" transform="translate(-8.49 -183.26)"/><path class="cls-1" d="M133.1,326a23.79,23.79,0,1,0,23.73-23.86A23.79,23.79,0,0,0,133.1,326Zm11.9,0a11.9,11.9,0,1,1,11.92,11.86A11.89,11.89,0,0,1,145,326Z" transform="translate(-8.49 -183.26)"/><path class="cls-1" d="M126,308.16a35.8,35.8,0,0,1,11.14-11.92l-57.64.14,0,11.9Z" transform="translate(-8.49 -183.26)"/><path class="cls-1" d="M341,200.55l.13,53.53,56.19-.15-24.47-53.46Z" transform="translate(-8.49 -183.26)"/><path class="cls-1" d="M79.46,284.49l226-.45-.33-100.78-226,.45Zm160.37-69c0-2.53,2.64-4.59,5.93-4.6l23.79,0c3.29,0,6,2,6,4.57l.13,36.64c0,2.53-2.65,4.59-5.94,4.6s-5.95-2-6-4.57l-.05-13.75-11.89,0c-3.29,0-6-2-6-4.57s2.64-4.59,5.93-4.59l11.89,0,0-9.16-17.84,0C242.51,220,239.84,218,239.83,215.46Zm-29,22.28c-7.48-1.76-12.59-7.08-12.6-13.1,0-7.57,8-13.71,17.79-13.72l11.9,0c3.28,0,6,2,6,4.57l.12,36.65c0,2.53-2.65,4.58-5.93,4.59s-6-2-6-4.57l0-10.69-13,13.46h0a7.17,7.17,0,0,1-8.32.93c-2.63-1.52-3.17-4.39-1.21-6.41Zm-36.38-8.41,0-9.16-17.85,0c-3.28,0-5.95-2-6-4.57s2.65-4.58,5.93-4.59l23.79,0c3.29,0,6,2,6,4.57l.12,36.65c0,2.53-2.65,4.59-5.94,4.59l-23.79.05c-3.28,0-5.95-2-6-4.57s2.65-4.59,5.93-4.59l17.85,0,0-9.16-11.9,0c-3.28,0-6-2-6-4.57s2.64-4.58,5.93-4.59Zm-41.64.08,0-9.16-17.84,0c-3.29,0-6-2-6-4.57s2.65-4.58,5.94-4.59l23.79-.05c3.28,0,6,2,6,4.57l.12,36.65c0,2.53-2.65,4.59-5.93,4.59l-23.79.05c-3.29,0-6-2-6-4.57s2.65-4.58,5.94-4.59l17.84,0,0-9.16-11.9,0c-3.28,0-6-2-6-4.57s2.65-4.59,5.93-4.6Z" transform="translate(-8.49 -183.26)"/><path class="cls-1" d="M176.5,296.14A35.79,35.79,0,0,1,187.7,308l117.84-.3,0-11.9-129,.34Z" transform="translate(-8.49 -183.26)"/><rect class="cls-1" x="88.58" y="14.47" width="194.61" height="63.87"/><path class="cls-2" d="M18.63,282.48a42.92,42.92,0,0,0,5.24-12.84l55.61-.14,0,12.82-60.89.16Z" transform="translate(-8.49 -183.26)"/><path class="cls-2" d="M32.53,256.94a50.29,50.29,0,0,0,4-12.83L79.11,244l0,12.82-46.61.12Z" transform="translate(-8.49 -183.26)"/><polyline class="cls-3" points="31.92 67.39 36.28 60.58 25.03 53.36 0 92.39 11.26 99.61 11.93 98.56"/><line class="cls-3" x1="9.77" y1="100.99" x2="35.9" y2="60.25"/></g><text class="cls-4" transform="translate(445.35 71.99)">Kostenloser <tspan x="0" y="58.8">Versand</tspan></text></svg>